<svg xmlns="http://www.w3.org/2000/svg" viewBox="0 0 105.94 10"><title>baybridgemotors</title><path d="M8,7.47a1.18,1.18,0,0,1,.35.88V9.82A1.68,1.68,0,0,1,7.84,11a1.71,1.71,0,0,1-1.23.48H2.15L1,10.32l.12-.12H5.41A1.44,1.44,0,0,0,7,8.62V7.2a1.38,1.38,0,0,0-.85-1.29,1.43,1.43,0,0,0,.76-1.3V3.39a1.83,1.83,0,0,0-.26-1.12L7.86,3.48a1.58,1.58,0,0,1,.36,1.11V5.81a1.4,1.4,0,0,1-.68,1.25ZM5,3.17a.37.37,0,0,1,.41.41v.91H3.87v.77H2.55V3.17ZM5,6.55c.34,0,.55,0,.55.39v.93H3.87v1H2.55V6.55Z" transform="translate(-0.95 -1.68)" style="fill:#c00"/><path d="M11.45,9.58l-.58,1.94H9.08l-1.2-1.2L8,10.2H9.55l.58-1.94h3l.35,1.32Zm1-3.46-.22.75H10.57l1-3.29.12-.12.12.12Zm1.13,4.2.12-.12h1.62L12.56,1.8l.12-.12,1.2,1.2,2.78,8.64H14.8Z" transform="translate(-0.95 -1.68)" style="fill:#c00"/><path d="M16.62,1.78l.09-.1,1.2,1.2.82,1.85-.34.76H18.3Zm3.79,9.74H18.68l-1.2-1.2.12-.12h1.49V7.27L21.67,1.8l.2-.12,1.2,1.2L20.41,8.53Z" transform="translate(-0.95 -1.68)" style="fill:#c00"/><path d="M29.91,7.47a1.22,1.22,0,0,1,.35.88V9.82A1.68,1.68,0,0,1,29.79,11a1.71,1.71,0,0,1-1.23.48H24.09l-1.19-1.2L23,10.2h4.34a1.44,1.44,0,0,0,1.58-1.58V7.2a1.38,1.38,0,0,0-.85-1.29,1.42,1.42,0,0,0,.75-1.3V3.39a1.84,1.84,0,0,0-.25-1.12L29.8,3.48a1.54,1.54,0,0,1,.36,1.11V5.81a1.41,1.41,0,0,1-.67,1.25Zm-3-4.3a.37.37,0,0,1,.41.41v.91H25.82v.77H24.5V3.17ZM26.9,6.55c.34,0,.55,0,.55.39v.93H25.82v1H24.5V6.55Z" transform="translate(-0.95 -1.68)" style="fill:#c00"/><path d="M33.61,11.52H31.88l-1.2-1.2.12-.12h1.49V7H33.9l.57,1.32h-.86ZM34.77,3.2a.36.36,0,0,1,.41.4v.92H33.61V5.63H32.29V3.2Zm.54,7h1.54L35.47,7.05a1.74,1.74,0,0,0,1.2-1.64v-2a2.1,2.1,0,0,0-.25-1.12l1.21,1.21A1.58,1.58,0,0,1,38,4.59v2a1.62,1.62,0,0,1-1.18,1.64l1.44,3.27H36.39l-1.2-1.2Z" transform="translate(-0.95 -1.68)" style="fill:#c00"/><path d="M39.68,11.52l-1.2-1.2.12-.12h1.49V1.8l.12-.12,1.2,1.2v8.64Z" transform="translate(-0.95 -1.68)" style="fill:#c00"/><path d="M49.15,3.48a1.58,1.58,0,0,1,.36,1.11V9.82a1.63,1.63,0,0,1-1.71,1.7H43.31l-1.2-1.2.12-.12H46.6a1.44,1.44,0,0,0,1.59-1.58V3.39a2.11,2.11,0,0,0-.25-1.12ZM46.29,3.2a.36.36,0,0,1,.41.4v.92H45V8.81H43.71V3.2Z" transform="translate(-0.95 -1.68)" style="fill:#c00"/><path d="M56.23,5.67l1,1V9.86a1.63,1.63,0,0,1-1.71,1.71H52.7a1.73,1.73,0,0,1-1.34-.6l-1-1a1.67,1.67,0,0,0,1.11.25h2.84a1.45,1.45,0,0,0,1.59-1.59v-3h-.47L54.32,4.47H53.13a.36.36,0,0,0-.4.41v.61l.13.13V6.93h1.58V8.25h-.55L52.73,7.08V8.86h-.92a.37.37,0,0,1-.4-.41V3.56a.36.36,0,0,1,.4-.41H54a.37.37,0,0,1,.41.41v.79h1.49v-1a2,2,0,0,0-.24-1.1l1.2,1.2a1.54,1.54,0,0,1,.36,1.1V5.67Z" transform="translate(-0.95 -1.68)" style="fill:#c00"/><path d="M64.56,11.52H58.91l-1.2-1.2.12-.12h5.41V8.81l.12-.12,1.2,1.2Zm-3.93-7v.69H59.31v-2h3.93V1.8l.12-.12,1.2,1.2V4.52Zm2,.57,1.2,1.2V7.92H60.63v.89H59.31V6.6h3.18V5.21Z" transform="translate(-0.95 -1.68)" style="fill:#c00"/><path d="M73.45,11.55V7.4h-.07l-.82,4.15H70.11L69.29,7.4h-.07v4.15H66.6l.34-8.7h3.73l.66,3.94h.12l.65-3.94h3.68l.32,8.7Z" transform="translate(-0.95 -1.68)" style="fill:#fff"/><path d="M83.56,8.07c0,2.58-1,3.62-3.32,3.62s-3.4-1.07-3.4-3.52,1.08-3.5,3.4-3.5S83.56,5.69,83.56,8.07ZM79.77,8v.33c0,1.14,0,1.42.49,1.42s.4-.27.4-1.35V8c0-1,0-1.3-.45-1.3S79.77,7,79.77,8Z" transform="translate(-0.95 -1.68)" style="fill:#fff"/><path d="M84.52,9.85v-3h-.74V4.92h.88l.19-1.24h2.59V4.92h1.27V6.81H87.42V9.4c0,.13.06.19.17.19.27,0,.56,0,1.11-.06l-.09,2a18.82,18.82,0,0,1-2,.14C85.24,11.69,84.52,11.24,84.52,9.85Z" transform="translate(-0.95 -1.68)" style="fill:#fff"/><path d="M95.83,8.07c0,2.58-1,3.62-3.32,3.62S89.1,10.62,89.1,8.17s1.08-3.5,3.41-3.5S95.83,5.69,95.83,8.07ZM92,8v.33c0,1.14,0,1.42.49,1.42s.41-.27.41-1.35V8c0-1,0-1.3-.45-1.3S92,7,92,8Z" transform="translate(-0.95 -1.68)" style="fill:#fff"/><path d="M99.37,11.55H96.48V4.84H99l.09.45h0c.44-.41.91-.55,2-.55l-.08,2.33h-1c-.54,0-.75.15-.75.72Z" transform="translate(-0.95 -1.68)" style="fill:#fff"/><path d="M106.77,5l-.29,2.12a20.44,20.44,0,0,0-2.24-.37c-.13,0-.18,0-.18.14s.12.16.23.2c1.4.45,2.59,1,2.59,2.42s-.7,2.23-2.7,2.23a10.88,10.88,0,0,1-2.49-.3l.18-2.06a12.75,12.75,0,0,0,2.33.42c.12,0,.19,0,.19-.12s-.07-.16-.22-.21c-1.71-.59-2.76-1.15-2.76-2.56s1-2.19,2.79-2.19A14.14,14.14,0,0,1,106.77,5Z" transform="translate(-0.95 -1.68)" style="fill:#fff"/></svg>
