<svg xmlns="http://www.w3.org/2000/svg" viewBox="0 0 246.62 68.67"><title>Asset 2</title><path d="M93.1,5A27.92,27.92,0,0,1,98,4.58c2.7,0,4.56.41,5.92,1.39a4,4,0,0,1,1.79,3.42c0,1.91-1.42,3.55-3.76,4.28v.08c2.32.49,4.58,2.1,4.58,4.91a4.89,4.89,0,0,1-1.86,3.87c-1.49,1.26-3.94,1.81-7.36,1.81a38.56,38.56,0,0,1-4.24-.21ZM96,13h2.26c2.81,0,4.64-1.41,4.64-3.34,0-2.12-1.7-3.17-4.64-3.17A11.6,11.6,0,0,0,96,6.62Zm0,9.35a13.4,13.4,0,0,0,2.14.12c3,0,5.47-1.07,5.47-3.81S101,14.81,98,14.8H96Z" transform="translate(0 -0.81)" style="fill:#fff"/><path d="M118.55,24.19l-.24-1.68h-.09a5.65,5.65,0,0,1-4.51,2c-3,0-4.69-1.87-4.69-4,0-3.41,3.46-5.18,9-5.16V15c0-1.36-.44-3.22-3.42-3.21a7.88,7.88,0,0,0-3.81,1l-.64-1.66a10.68,10.68,0,0,1,4.95-1.13c4.5,0,5.78,2.59,5.78,5.5V20.9a19.67,19.67,0,0,0,.23,3.29ZM118.1,17c-2.66,0-6.21.38-6.21,3.18a2.34,2.34,0,0,0,2.56,2.44A3.56,3.56,0,0,0,118,20.38a2.59,2.59,0,0,0,.12-.8Z" transform="translate(0 -0.81)" style="fill:#fff"/><path d="M126.27,10.21l3.17,8.19c.36,1,.69,2,.94,2.87h.08c.26-.82.6-1.88.94-2.9l2.87-8.16h3l-4,9.66c-1.8,4.42-3.16,7.15-5.17,8.85a8.79,8.79,0,0,1-3.45,1.78l-.81-2.06a8.35,8.35,0,0,0,2.53-1.39,8.72,8.72,0,0,0,2.2-2.69,1.55,1.55,0,0,0,.21-.64,1.38,1.38,0,0,0-.17-.61l-5.48-12.9Z" transform="translate(0 -0.81)" style="fill:#fff"/><path d="M140,5a27.92,27.92,0,0,1,4.93-.4c2.7,0,4.56.41,5.92,1.39a4,4,0,0,1,1.79,3.42c0,1.91-1.42,3.55-3.77,4.28v.08c2.32.49,4.59,2.1,4.59,4.91a4.87,4.87,0,0,1-1.87,3.87c-1.49,1.26-3.93,1.81-7.35,1.81a38.4,38.4,0,0,1-4.24-.21Zm2.85,8h2.26c2.8,0,4.64-1.41,4.64-3.34,0-2.12-1.7-3.17-4.64-3.17a11.6,11.6,0,0,0-2.26.16Zm0,9.35a13.4,13.4,0,0,0,2.14.12c3,0,5.47-1.07,5.47-3.81s-2.55-3.82-5.55-3.83h-2.06Z" transform="translate(0 -0.81)" style="fill:#fff"/><path d="M157.05,14.34c0-1.51-.06-2.91-.13-4.13h2.53l.12,2.58h.1a4.62,4.62,0,0,1,4.24-2.87,4.22,4.22,0,0,1,.75.06v2.35a5.73,5.73,0,0,0-.88-.05A3.75,3.75,0,0,0,160,15.43a6.47,6.47,0,0,0-.11,1.21v7.55h-2.87Z" transform="translate(0 -0.81)" style="fill:#fff"/><path d="M170.62,6.36a1.6,1.6,0,0,1-1.81,1.54,1.57,1.57,0,0,1-1.71-1.54,1.61,1.61,0,0,1,1.76-1.54A1.58,1.58,0,0,1,170.62,6.36Zm-3.19,17.83v-14h2.87v14Z" transform="translate(0 -0.81)" style="fill:#fff"/><path d="M187.78,3.83V20.66c0,1.15.07,2.61.14,3.53h-2.53L185.23,22h-.09a5.53,5.53,0,0,1-4.94,2.51c-3.62,0-6.38-2.77-6.38-7.12,0-4.76,3.1-7.44,6.66-7.44a5,5,0,0,1,4.38,2h.06V3.83Zm-2.86,12a4.58,4.58,0,0,0-.1-1,3.78,3.78,0,0,0-3.76-2.86c-2.82,0-4.34,2.38-4.34,5.37s1.43,5.23,4.26,5.23a3.84,3.84,0,0,0,3.81-2.85,3.41,3.41,0,0,0,.13-1Z" transform="translate(0 -0.81)" style="fill:#fff"/><path d="M205.31,10.21c-.08,1-.14,2.15-.14,4v8c0,3.37-.71,5.15-2.13,6.31a8.8,8.8,0,0,1-5.51,1.62,11.18,11.18,0,0,1-4.93-1l.71-1.89a9.66,9.66,0,0,0,4.3,1c2.76,0,4.72-1.28,4.72-4.71V22h-.07a5.27,5.27,0,0,1-4.6,2.16c-3.74,0-6.36-2.92-6.36-6.86,0-4.86,3.37-7.37,6.75-7.37a4.94,4.94,0,0,1,4.51,2.23h.07l.13-1.94Zm-3,5.29a3.25,3.25,0,0,0-.16-1.1,3.72,3.72,0,0,0-3.65-2.53c-2.56,0-4.3,2.09-4.3,5.29,0,3,1.56,5.08,4.28,5.08a3.7,3.7,0,0,0,3.61-2.43,3.83,3.83,0,0,0,.22-1.33Z" transform="translate(0 -0.81)" style="fill:#fff"/><path d="M211.45,17.58c.05,3.69,2.44,5,5.11,5a10.87,10.87,0,0,0,4-.65l.5,1.75a13.53,13.53,0,0,1-4.93.82c-4.72,0-7.46-2.82-7.46-7s2.74-7.49,7.08-7.49c4.77,0,6.15,3.7,6.15,6.45a6.13,6.13,0,0,1-.09,1.21Zm7.68-1.77c0-2-.9-4.09-3.62-4.09s-3.82,2.27-4,4.09Z" transform="translate(0 -0.81)" style="fill:#fff"/><path d="M121,44.1c-.1-3.13-.19-6.8-.18-11.1h-.13c-1,3.66-2.36,7.76-3.41,10.78l-3.2,9.59h-6.78l-2.71-9.56c-.83-3-1.83-7-2.58-10.81h-.1c-.18,3.87-.35,8-.49,11.1L101,53.94H93l2-27.5h11.66l2.14,7.4c.89,3.06,1.85,6.71,2.52,10.08h.17c.9-3.35,2-7.24,2.93-10.14l2.42-7.34h11.4l1.62,27.5h-8.41Z" transform="translate(0 -0.81)" style="fill:#fff"/><path d="M159.07,43.7c0,7.29-6.13,10.69-12.74,10.69-7.07,0-12.56-3.82-12.56-10.35,0-6.37,5-10.62,13-10.62C154.18,33.42,159.07,37.66,159.07,43.7Zm-16.37.19c0,3,1.17,5.31,3.84,5.31,2.33,0,3.6-2.08,3.6-5.31,0-2.77-1-5.28-3.62-5.28C143.68,38.61,142.7,41.27,142.7,43.89Z" transform="translate(0 -0.81)" style="fill:#fff"/><path d="M172.72,28.16v5.7h4.9v5.39h-4.9V45c0,2.39.64,3.38,2.74,3.38a12.82,12.82,0,0,0,2.06-.15v5.58a20.85,20.85,0,0,1-5.15.55,9.32,9.32,0,0,1-5.92-1.83c-1.44-1.22-2.18-3.19-2.18-6.25v-7h-2.92V33.86h2.92V29.77Z" transform="translate(0 -0.81)" style="fill:#fff"/><path d="M205.49,43.7c0,7.29-6.13,10.69-12.75,10.69-7.06,0-12.55-3.82-12.55-10.35,0-6.37,5-10.62,13-10.62C200.59,33.42,205.49,37.66,205.49,43.7Zm-16.37.19c0,3,1.16,5.31,3.84,5.31,2.33,0,3.6-2.08,3.6-5.31,0-2.77-1.06-5.28-3.62-5.28C190.09,38.61,189.12,41.27,189.12,43.89Z" transform="translate(0 -0.81)" style="fill:#fff"/><path d="M209.65,40.64c0-3.19-.06-5.1-.19-6.78h7.39l.31,3.63h.2a6.78,6.78,0,0,1,6.28-4.07,8.28,8.28,0,0,1,1.73.12v6.9a11.84,11.84,0,0,0-2.21-.2c-2.55,0-4.27.91-4.72,2.53a5.25,5.25,0,0,0-.12,1.25v9.92h-8.67Z" transform="translate(0 -0.81)" style="fill:#fff"/><path d="M229.21,47.77a17.69,17.69,0,0,0,6.55,1.52c1.83,0,2.56-.35,2.56-1.09s-.54-1.06-3.07-1.75c-5.19-1.4-7-3.79-6.93-6.13,0-4,4-6.9,10.22-6.9a20.62,20.62,0,0,1,7,1.14l-1.37,5A15.37,15.37,0,0,0,239,38.45c-1.48,0-2.36.33-2.36,1.13s.75,1.07,3.56,1.84c4.65,1.3,6.43,3.35,6.46,6.25,0,3.82-3.51,6.7-10.78,6.7A21.18,21.18,0,0,1,227.76,53Z" transform="translate(0 -0.81)" style="fill:#fff"/><path d="M91.56,65.4a4.68,4.68,0,0,0,2.07.5c1.25,0,2-.6,2-1.47s-.55-1.27-1.74-1.72c-1.39-.49-2.44-1.25-2.44-2.43S92.68,58,94.54,58a4.64,4.64,0,0,1,2,.39l-.34.89a3.75,3.75,0,0,0-1.7-.37c-1.26,0-1.77.68-1.77,1.27,0,.81.59,1.19,1.85,1.68,1.57.62,2.33,1.35,2.33,2.52,0,1.36-1.17,2.46-3.32,2.46a5.25,5.25,0,0,1-2.32-.51Z" transform="translate(0 -0.81)" style="fill:#fff"/><path d="M99.9,58.82a.71.71,0,0,1-.8.68.7.7,0,0,1-.76-.68.79.79,0,0,1,1.56,0Zm-1.41,7.87V60.52h1.26v6.17Z" transform="translate(0 -0.81)" style="fill:#fff"/><path d="M101.77,62.16c0-.66,0-1.13-.06-1.64h1.12l.07.93h0a2.54,2.54,0,0,1,2.18-1.06,2.23,2.23,0,0,1,2.32,2.48v3.82h-1.26V63c0-.92-.36-1.73-1.48-1.73a1.63,1.63,0,0,0-1.57,1.11,1.69,1.69,0,0,0-.08.53v3.77h-1.27Z" transform="translate(0 -0.81)" style="fill:#fff"/><path d="M114.11,66.49a4.84,4.84,0,0,1-1.82.32A3,3,0,0,1,109,63.66a3.27,3.27,0,0,1,3.59-3.26,4.36,4.36,0,0,1,1.59.28l-.28.85a3.19,3.19,0,0,0-1.32-.26,2.2,2.2,0,0,0-2.3,2.35,2.17,2.17,0,0,0,2.28,2.31,3.67,3.67,0,0,0,1.38-.26Z" transform="translate(0 -0.81)" style="fill:#fff"/><path d="M116.15,63.77A2,2,0,0,0,118.41,66a4.73,4.73,0,0,0,1.76-.29l.22.77a5.9,5.9,0,0,1-2.17.37,3,3,0,0,1-3.29-3.11,3.05,3.05,0,0,1,3.12-3.31,2.61,2.61,0,0,1,2.71,2.85,3.51,3.51,0,0,1,0,.53Zm3.39-.78a1.58,1.58,0,0,0-1.6-1.81A1.85,1.85,0,0,0,116.17,63Z" transform="translate(0 -0.81)" style="fill:#fff"/><path d="M124.84,66.69V66l1-.88c2.1-1.83,3.3-3,3.31-4.39,0-.87-.48-1.58-1.76-1.58a3.38,3.38,0,0,0-1.88.63l-.38-.77a4.34,4.34,0,0,1,2.5-.76c2,0,2.78,1.16,2.78,2.36,0,1.55-1.27,2.87-3.07,4.46l-.73.66v0h4v.91Z" transform="translate(0 -0.81)" style="fill:#fff"/><path d="M138,62.48c0,2.88-1.2,4.34-3.14,4.34-1.78,0-3-1.52-3-4.25s1.28-4.3,3.14-4.3S138,59.84,138,62.48Zm-4.85.09c0,2.11.67,3.39,1.79,3.39s1.78-1.37,1.78-3.44-.53-3.39-1.77-3.39C133.83,59.13,133.12,60.4,133.12,62.57Z" transform="translate(0 -0.81)" style="fill:#fff"/><path d="M145.1,62.48c0,2.88-1.21,4.34-3.14,4.34s-3-1.52-3-4.25,1.28-4.3,3.15-4.3S145.1,59.84,145.1,62.48Zm-4.85.09c0,2.11.66,3.39,1.79,3.39s1.78-1.37,1.78-3.44-.54-3.39-1.78-3.39C141,59.13,140.25,60.4,140.25,62.57Z" transform="translate(0 -0.81)" style="fill:#fff"/><path d="M148.92,59.43h0l-1.67.78-.25-.83,2.11-1h1.07v8.29h-1.23Z" transform="translate(0 -0.81)" style="fill:#fff"/><rect x="29.21" y="-2.48" width="42.5" height="50" transform="translate(27.94 72.17) rotate(-90)" style="fill:none;stroke:red;stroke-miterlimit:10;stroke-width:0.9219544457292888px"/><rect x="4.21" y="22.77" width="42.5" height="50" transform="translate(-22.31 72.42) rotate(-90)" style="fill:none;stroke:red;stroke-miterlimit:10;stroke-width:0.9219544457292888px"/></svg>
