<svg xmlns="http://www.w3.org/2000/svg" xmlns:xlink="http://www.w3.org/1999/xlink" viewBox="0 0 500 500"><defs><linearGradient id="a" x1="-1094.06" y1="-1440.92" x2="-878.97" y2="-1233.07" gradientTransform="translate(2661.54 3526.6) scale(2.47)" gradientUnits="userSpaceOnUse"><stop offset="0" stop-color="#dff4ff"/><stop offset="0.1" stop-color="#d6eaf5"/><stop offset="0.27" stop-color="#bfd0d9"/><stop offset="0.49" stop-color="#98a5ac"/><stop offset="0.75" stop-color="#646b6e"/><stop offset="1" stop-color="#2b2b2b"/></linearGradient><radialGradient id="b" cx="-1080.49" cy="-1423.28" r="144.02" gradientTransform="translate(2661.54 3526.6) scale(2.47)" gradientUnits="userSpaceOnUse"><stop offset="0" stop-color="#fff"/><stop offset="0.31" stop-color="#a8a8a8"/><stop offset="0.65" stop-color="#4f4f4f"/><stop offset="0.89" stop-color="#161616"/><stop offset="1"/></radialGradient><linearGradient id="c" x1="-195.19" y1="-131.61" x2="-58.2" y2="0.77" gradientTransform="translate(-48.83 101.81) rotate(180) scale(2.47)" gradientUnits="userSpaceOnUse"><stop offset="0" stop-color="#dff4ff"/><stop offset="0.09" stop-color="#d6eaf5"/><stop offset="0.23" stop-color="#bed0d9"/><stop offset="0.42" stop-color="#96a4ac"/><stop offset="0.65" stop-color="#5f686d"/><stop offset="0.91" stop-color="#1a1d1e"/><stop offset="1"/></linearGradient><radialGradient id="d" cx="-1106.35" cy="-1437.95" r="346.06" gradientTransform="translate(2661.54 3526.6) scale(2.47)" gradientUnits="userSpaceOnUse"><stop offset="0" stop-color="#fff"/><stop offset="0.31" stop-color="#fdfdfd"/><stop offset="0.45" stop-color="#f6f6f6"/><stop offset="0.56" stop-color="#e9e9e9"/><stop offset="0.65" stop-color="#d7d7d7"/><stop offset="0.72" stop-color="#bfbfbf"/><stop offset="0.79" stop-color="#a2a2a2"/><stop offset="0.86" stop-color="gray"/><stop offset="0.92" stop-color="#575757"/><stop offset="0.97" stop-color="#2b2b2b"/><stop offset="1" stop-color="#141414"/></radialGradient><radialGradient id="e" cx="-1106.37" cy="-1437.95" r="346.09" xlink:href="#d"/><radialGradient id="f" cx="-1106.39" cy="-1438.05" r="346.36" xlink:href="#d"/><radialGradient id="g" cx="-1044.37" cy="-1389.97" r="93.34" gradientTransform="translate(2661.54 3526.6) scale(2.47)" gradientUnits="userSpaceOnUse"><stop offset="0" stop-color="#e6e6e6"/><stop offset="0.1" stop-color="#d6d6d6"/><stop offset="0.31" stop-color="#adadad"/><stop offset="0.59" stop-color="#6c6c6c"/><stop offset="0.93" stop-color="#121212"/><stop offset="1"/></radialGradient><radialGradient id="h" cx="-1018.84" cy="-1377.42" r="135.75" gradientTransform="translate(2661.54 3526.6) scale(2.47)" gradientUnits="userSpaceOnUse"><stop offset="0" stop-color="#fff"/><stop offset="0.34" stop-color="#fdfdfd"/><stop offset="0.48" stop-color="#f6f6f6"/><stop offset="0.58" stop-color="#eaeaea"/><stop offset="0.67" stop-color="#d8d8d8"/><stop offset="0.74" stop-color="#c2c2c2"/><stop offset="0.8" stop-color="#a6a6a6"/><stop offset="0.86" stop-color="#848484"/><stop offset="0.91" stop-color="#5f5f5f"/><stop offset="0.95" stop-color="#404040"/><stop offset="0.96" stop-color="#404040"/><stop offset="1" stop-color="#404040"/><stop offset="1"/></radialGradient><radialGradient id="i" cx="-1058.7" cy="-1428.88" r="240.41" gradientTransform="translate(2661.54 3526.6) scale(2.47)" gradientUnits="userSpaceOnUse"><stop offset="0.17" stop-color="#fff"/><stop offset="0.2" stop-color="#e0eff7"/><stop offset="0.24" stop-color="#b2d9ec"/><stop offset="0.29" stop-color="#8bc5e2"/><stop offset="0.34" stop-color="#6bb5da"/><stop offset="0.38" stop-color="#52a9d4"/><stop offset="0.44" stop-color="#41a0cf"/><stop offset="0.49" stop-color="#369bcd"/><stop offset="0.56" stop-color="#39c"/><stop offset="0.61" stop-color="#3396c8"/><stop offset="0.66" stop-color="#328ebc"/><stop offset="0.7" stop-color="#3180a8"/><stop offset="0.75" stop-color="#2f6d8c"/><stop offset="0.8" stop-color="#2d5468"/><stop offset="0.85" stop-color="#2a373d"/><stop offset="0.87" stop-color="#292929"/></radialGradient><radialGradient id="j" cx="-1058.7" cy="-1428.88" r="240.41" xlink:href="#i"/><radialGradient id="k" cx="-1043.1" cy="-1388.8" r="91.55" xlink:href="#g"/><linearGradient id="l" x1="-989.86" y1="-1411.66" x2="-900.57" y2="-1325.38" gradientTransform="translate(2661.54 3526.6) scale(2.47)" gradientUnits="userSpaceOnUse"><stop offset="0" stop-color="#f0f4ff"/><stop offset="0.11" stop-color="#ebeff9"/><stop offset="0.25" stop-color="#dce0ea"/><stop offset="0.4" stop-color="#c4c7cf"/><stop offset="0.57" stop-color="#a2a4ab"/><stop offset="0.75" stop-color="#76777c"/><stop offset="0.93" stop-color="#414243"/><stop offset="1" stop-color="#2b2b2b"/></linearGradient><linearGradient id="m" x1="-1062.32" y1="-1338.82" x2="-973.04" y2="-1252.54" xlink:href="#l"/><linearGradient id="n" x1="-1019.13" y1="-1369.58" x2="-972.83" y2="-1324.84" gradientTransform="translate(2661.54 3526.6) scale(2.47)" gradientUnits="userSpaceOnUse"><stop offset="0" stop-color="#c2d7e8"/><stop offset="0.13" stop-color="#bacfe1"/><stop offset="0.34" stop-color="#a4bacd"/><stop offset="0.6" stop-color="#8098ac"/><stop offset="0.89" stop-color="#4e697f"/><stop offset="1" stop-color="#3a566d"/></linearGradient><linearGradient id="o" x1="-1042.32" y1="-1358.62" x2="-953.93" y2="-1273.21" gradientTransform="translate(2661.54 3526.6) scale(2.47)" gradientUnits="userSpaceOnUse"><stop offset="0" stop-color="#f0f4ff"/><stop offset="0.1" stop-color="#e8ebf6"/><stop offset="0.26" stop-color="#d1d4dd"/><stop offset="0.46" stop-color="#abaeb5"/><stop offset="0.69" stop-color="#78797d"/><stop offset="0.96" stop-color="#363637"/><stop offset="1" stop-color="#2b2b2b"/></linearGradient><linearGradient id="p" x1="-977.17" y1="-1326.94" x2="-946.17" y2="-1296.98" gradientTransform="translate(2661.54 3526.6) scale(2.47)" gradientUnits="userSpaceOnUse"><stop offset="0" stop-color="#d9def0"/><stop offset="0.12" stop-color="#d4daec"/><stop offset="0.26" stop-color="#c7cfe2"/><stop offset="0.41" stop-color="#b0bcd1"/><stop offset="0.57" stop-color="#90a1b8"/><stop offset="0.72" stop-color="#677f99"/><stop offset="0.89" stop-color="#355674"/><stop offset="0.97" stop-color="#173d5d"/></linearGradient><linearGradient id="q" x1="-1008.89" y1="-1391.03" x2="-920.6" y2="-1305.72" xlink:href="#l"/></defs><title>bmw</title><path d="M250,0C111.93,0,0,111.92,0,250S111.93,500,250,500,500,388.06,500,250,388.08,0,250,0Zm0,487.49C118.83,487.49,12.51,381.16,12.51,250S118.83,12.5,250,12.5,487.5,118.83,487.5,250,381.17,487.49,250,487.49Z" style="fill:url(#a)"/><path d="M489.29,250c0,132.15-107.14,239.29-239.29,239.29S10.72,382.14,10.72,250,117.85,10.71,250,10.71,489.29,117.84,489.29,250Z" style="fill:#333"/><path d="M487.5,250c0,131.17-106.33,237.5-237.5,237.5S12.51,381.16,12.51,250,118.83,12.5,250,12.5,487.5,118.83,487.5,250Z" style="fill:url(#b)"/><path d="M409.22,250A159.22,159.22,0,1,1,250,90.77,159.21,159.21,0,0,1,409.22,250Z" style="fill:url(#c)"/><path d="M256.38,86.47l16.54-43.84V86.47h12.56V23.69H266.6l-17.17,45h.16L232.42,23.69H213.54V86.47h12.57V42.63l16.54,43.84Zm172.39,28.15-21.46,31.29L441,129.33l9.15,11-53.06,26.64-10.72-13L407,123l-.13-.15-34.21,14.64-10.84-12.89,35.78-47.37,9.14,11-22.4,30.16L419,102.85Z"/><path d="M138.81,102.63c-5.06-4.91-12.86-6.39-20.19-1.85a14,14,0,0,0,.09-9.37c-3.16-5.76-4.27-6.48-6.86-8.67-8.43-7.06-17.3-1-23.64,6.52L57.58,125.78l48.16,40.41,32.31-38.5c7.38-8.8,8.52-17.52.76-25.06ZM76.5,120.23,94.91,98.3c2.13-2.53,7-2.43,10,.17,3.4,2.86,3.41,6.91,1.13,9.64l-18.2,21.68L76.5,120.23Zm50.77,3.65-19.18,22.86-12-10.09,19.32-23a7.62,7.62,0,0,1,10.35-.61c3.7,3.12,4.07,7.85,1.52,10.88Z" style="fill:#333"/><path d="M256.51,84l16.54-43.83V84h12.56V21.26H266.73L249.56,66.21h.17L232.56,21.26H213.68V84h12.56V40.21L242.78,84Z" style="fill:url(#d)"/><path d="M428.9,110.41,407.44,141.7l33.72-16.58,9.13,11-53.05,26.64-10.72-13,20.57-31-.12-.16-34.22,14.65-10.83-12.9L397.69,73l9.14,11L384.44,114.1l34.65-15.46Z" style="fill:url(#e)"/><path d="M136.56,101.39c-5-4.91-12.86-6.39-20.18-1.85a14,14,0,0,0,.08-9.37c-3.16-5.76-4.26-6.47-6.87-8.66C101.16,74.44,92.3,80.48,86,88L55.33,124.54,103.49,165l32.31-38.5c7.37-8.8,8.52-17.52.76-25.06ZM74.26,119l18.4-21.93c2.13-2.54,7-2.44,10,.16,3.41,2.86,3.42,6.92,1.12,9.64L85.64,128.55,74.26,119ZM125,122.64l-19.19,22.87-12-10.1,19.34-23a7.59,7.59,0,0,1,10.33-.6c3.72,3.11,4.09,7.84,1.55,10.87Z" style="fill:url(#f)"/><path d="M96.08,250A153.93,153.93,0,1,1,250,403.92,153.92,153.92,0,0,1,96.08,250Z" style="fill:url(#g)"/><path d="M100.5,250A149.51,149.51,0,1,1,250,399.5,149.5,149.5,0,0,1,100.5,250Z" style="fill:url(#h)"/><path d="M100.27,250H250V100.26A149.73,149.73,0,0,0,100.27,250Z" style="fill:url(#i)"/><path d="M250,250V399.73A149.73,149.73,0,0,0,399.73,250Z" style="fill:url(#j)"/><path d="M401,247.34H252.66V99h-5.32V247.34H99v5.31H247.34V401h5.32V252.65H401Z" style="fill:url(#k)"/><path d="M252.66,103.22A146.79,146.79,0,0,1,396.79,247.34h2.65A149.45,149.45,0,0,0,252.65,100.56Z" style="fill:url(#l)"/><path d="M103,247.32A147,147,0,0,1,247.27,103v-2.65a149.64,149.64,0,0,0-147,147Z" style="fill:#c2d7e8"/><path d="M247.34,396.77A146.78,146.78,0,0,1,103.22,252.65h-2.66A149.45,149.45,0,0,0,247.35,399.43v-2.66Z" style="fill:url(#m)"/><path d="M396.79,252.65A146.8,146.8,0,0,1,252.66,396.77v2.66A149.45,149.45,0,0,0,399.44,252.65Z" style="fill:#12404f"/><path d="M244.51,100.34V244.42H100.43v2.85H247.34V100.34Z" style="fill:url(#n)"/><path d="M244.26,398V255.69H101.62v-2.81H247.07V398Z" style="fill:url(#o)"/><path d="M255.7,398V255.69H398.05v-2.81H252.9V398Z" style="fill:url(#p)"/><path d="M255.7,101.61V244H398.05v2.8H252.9V101.61Z" style="fill:url(#q)"/></svg>
