<svg xmlns="http://www.w3.org/2000/svg" viewBox="0 0 247.97 58.92"><title>jay-lenos-garage</title><path d="M55.67,48.85v0H29.56L27.88,55a8.84,8.84,0,0,1-1.06,2.67,2.4,2.4,0,0,1-1.44,1,11.86,11.86,0,0,1-2.71.22H13.53A16.93,16.93,0,0,1,15.92,53a19,19,0,0,1,10.75-8l1.64-5a61.33,61.33,0,0,1-6.36,4,63,63,0,0,1-7.75,3.7,18.76,18.76,0,0,1-6.55,1.55,8.22,8.22,0,0,1-5.6-1.78A6.54,6.54,0,0,1,0,42.3a15.12,15.12,0,0,1,.71-4.41,23.72,23.72,0,0,1,4-7.53,30.9,30.9,0,0,1,6.42-6.24A32.14,32.14,0,0,1,18.87,20,24,24,0,0,1,27,18.51a12.75,12.75,0,0,1,2.23.2,6.65,6.65,0,0,1,2,.68,3.78,3.78,0,0,1,1.44,1.31,3.55,3.55,0,0,1,.55,2,7,7,0,0,1-.31,1.88l-1.81,6.27H26.94l1.9-6.49a1.57,1.57,0,0,0,.12-.6,1,1,0,0,0-.83-1.12A8,8,0,0,0,26,22.43a18,18,0,0,0-6.46,1.29,26,26,0,0,0-6.32,3.5A26.78,26.78,0,0,0,8,32.3,18.73,18.73,0,0,0,4.9,38.11a12.69,12.69,0,0,0-.59,3.45c0,2.5,1.43,3.76,4.3,3.76,2.29,0,5.31-1,9.08-2.92s7.4-4.06,10.9-6.33h5.08L30.82,45H53.13a9.48,9.48,0,0,1,.31-1.43l2.49-8.25a4.44,4.44,0,0,1,1.5-2.47,5,5,0,0,1,2.8-.66h13.1L69.76,44a1.93,1.93,0,0,0-.08.4.46.46,0,0,0,.25.47,2,2,0,0,0,.65.1H92.39l4.46-14.91,4.36-.93-.9,3h11.88L111,36.06a6.56,6.56,0,0,0-2.06.31,2.1,2.1,0,0,0-1.27,1.48l-1,3.5a6.18,6.18,0,0,0-.28,1.61,1.79,1.79,0,0,0,.67,1.53,3.36,3.36,0,0,0,2,.5h20.45a9.48,9.48,0,0,1,.31-1.43l2.49-8.25a4.33,4.33,0,0,1,1.5-2.47,5,5,0,0,1,2.8-.66h13.09L146.09,44a1.74,1.74,0,0,0-.07.4.45.45,0,0,0,.25.47,1.89,1.89,0,0,0,.65.1h20.49a10.36,10.36,0,0,1,.26-1.16l2.11-7.07a6.78,6.78,0,0,1,1.4-2.69,5.22,5.22,0,0,1,2.26-1.45,10.1,10.1,0,0,1,3.13-.44h10.75l-4.12,13.7a24.33,24.33,0,0,1,3.6-.66,33.65,33.65,0,0,1,3.49-.23h18.1a5.9,5.9,0,0,1-.17-1.43,7.1,7.1,0,0,1,.39-2.28l2.77-9.1h9.69a5.6,5.6,0,0,1,2.31.43,3.22,3.22,0,0,1,1.43,1.23,3.31,3.31,0,0,1,.48,1.77,4.83,4.83,0,0,1-2.4,3.89l-6,4.37-2.35-2.81,6.78-5h-7.08l-1.68,5.53a3.2,3.2,0,0,0-.2,1.19,1.93,1.93,0,0,0,.74,1.62,3.13,3.13,0,0,0,2,.59H248l-2.28,3.88H214.74a7.59,7.59,0,0,1-4.67-1.39,6.6,6.6,0,0,1-.55-.49l-1.15,1.88h-17.7c-1,0-2,0-3,.13s-2,.21-3,.38A23.33,23.33,0,0,0,182,50l-1.74,6.09A3.86,3.86,0,0,1,179,58.29a4.58,4.58,0,0,1-2.62.63h-8.21a16,16,0,0,1,3.76-7.21,14,14,0,0,1,3.1-2.59,26.9,26.9,0,0,1,3.72-1.86l1.53-4.92q-5.65,6.52-9.89,6.53l-.37,0v0H147a8.23,8.23,0,0,1-2.71-.4,3.76,3.76,0,0,1-1.8-1.21,3.09,3.09,0,0,1-.63-2,6.61,6.61,0,0,1,.29-1.71l.42-1.3c-1,1.07-1.84,1.94-2.54,2.62a22.77,22.77,0,0,1-2.25,1.94,12.41,12.41,0,0,1-2.58,1.49,7.34,7.34,0,0,1-2.72.55,5.93,5.93,0,0,1-.61,0l0,0H109.16a10.16,10.16,0,0,1-3.63-.6,5.22,5.22,0,0,1-2.44-1.81,4.81,4.81,0,0,1-.87-2.94,8.05,8.05,0,0,1,.38-2.39l1.47-5.07H99.18l-3,10.07A4.06,4.06,0,0,1,95,48.26a2.75,2.75,0,0,1-1.3.55l0,.06H70.71a8.29,8.29,0,0,1-2.72-.4,3.68,3.68,0,0,1-1.79-1.21,3.09,3.09,0,0,1-.64-2,6.28,6.28,0,0,1,.3-1.71l.42-1.3c-1,1.07-1.85,1.94-2.54,2.62a24.13,24.13,0,0,1-2.26,1.94,12.41,12.41,0,0,1-2.58,1.49,7.33,7.33,0,0,1-2.71.55l-.52,0Zm116-3.86h0c.53,0,1.48-.59,2.86-1.77s2.79-2.5,4.24-4a35.18,35.18,0,0,0,2.89-3.17h-6.09a1.92,1.92,0,0,0-1.2.41,2,2,0,0,0-.7,1l-2,6.52a3.25,3.25,0,0,0-.19.71c0,.17.06.25.19.26Zm6,6.41a11.13,11.13,0,0,0-1.87,1.33,12.58,12.58,0,0,0-1.45,1.5,7,7,0,0,0-.8,1.21h1.76a1.49,1.49,0,0,0,1.54-1.19l.82-2.85Zm-44-6.41h.32a6.39,6.39,0,0,0,2-1.18c.9-.73,1.82-1.54,2.74-2.43s1.83-1.81,2.7-2.74,1.67-1.79,2.36-2.58h-7.56l-2.45,8.14a1.83,1.83,0,0,0-.15.61.22.22,0,0,0,.08.18ZM57.28,45h.31a6.39,6.39,0,0,0,2-1.18c.91-.73,1.83-1.54,2.74-2.43s1.83-1.81,2.71-2.74,1.66-1.79,2.36-2.58H59.79L57.34,44.2a1.83,1.83,0,0,0-.15.61.2.2,0,0,0,.09.18Zm-31.77,4.7a13.46,13.46,0,0,0-4.21,2.83A18,18,0,0,0,20.05,54c-.33.46-.66.94-1,1.44H22a2.68,2.68,0,0,0,1.58-.32,3.19,3.19,0,0,0,.78-1.51l1.2-3.92Z" style="fill:#fff"/><path d="M66.56,16.53l-1.27.09-.78,0-.41,0c-.46.91-1,1.82-1.57,2.73a27.39,27.39,0,0,1-1.94,2.63,22.61,22.61,0,0,1-2.26,2.33,16.18,16.18,0,0,1-2.54,1.88A13.93,13.93,0,0,1,53,27.51,9.7,9.7,0,0,1,50,28a9.88,9.88,0,0,1-2.54-.32,7.58,7.58,0,0,1-2.21-.93,5.21,5.21,0,0,1-1.55-1.55A3.92,3.92,0,0,1,43.11,23a3.46,3.46,0,0,1,.51-1.83A5.94,5.94,0,0,1,45,19.67a11,11,0,0,1,2.06-1.27,20,20,0,0,1,2.57-1c.92-.31,1.88-.58,2.89-.82s2-.45,3-.63,2-.33,3-.46,1.88-.23,2.73-.31c.27-.6.51-1.2.72-1.79s.4-1.15.55-1.69a15.27,15.27,0,0,0,.34-1.56A9.79,9.79,0,0,0,63,8.75a7.15,7.15,0,0,0-1.57-5.06A6.34,6.34,0,0,0,56.58,2a14.42,14.42,0,0,0-2.46.21,13.88,13.88,0,0,0-2.34.62,12.63,12.63,0,0,0-2.06,1A8.56,8.56,0,0,0,48,5.16a4.52,4.52,0,0,0-1.52,3.2v0A2.3,2.3,0,0,0,47,9.81a4.07,4.07,0,0,0,1.11,1,6.83,6.83,0,0,0,1.51.62,12.18,12.18,0,0,0,1.65.36,14.87,14.87,0,0,0,1.52.16l1.14,0c.43,0,.9,0,1.41-.05s1-.11,1.56-.2,1-.21,1.57-.35a9.35,9.35,0,0,0,1.44-.52,1.41,1.41,0,0,1,.39-.08.5.5,0,0,1,.33.09.61.61,0,0,1,.14.17.6.6,0,0,1,.05.16v.2a1.36,1.36,0,0,1-.16.62,1.1,1.1,0,0,1-.45.48,11,11,0,0,1-1.27.6,14.38,14.38,0,0,1-1.61.56,15,15,0,0,1-1.84.4,11.37,11.37,0,0,1-1.94.15c-.71,0-1.49,0-2.32-.07a24.75,24.75,0,0,1-2.52-.31,15.46,15.46,0,0,1-2.43-.62,8,8,0,0,1-2.08-1,5,5,0,0,1-1.45-1.56,4.09,4.09,0,0,1-.56-2.16c.14-.53.29-1,.46-1.52s.35-.85.57-1.3A4.31,4.31,0,0,1,44,4.49a10.45,10.45,0,0,1,1.7-1.36,14.56,14.56,0,0,1,2-1.12,16.5,16.5,0,0,1,2.22-.87c.77-.25,1.54-.46,2.32-.63S53.76.22,54.51.13A18,18,0,0,1,56.64,0a14.15,14.15,0,0,1,4.21.57,8.34,8.34,0,0,1,3.07,1.68A7.2,7.2,0,0,1,65.81,5a10.36,10.36,0,0,1,.63,3.74,11.67,11.67,0,0,1-.38,2.81A22.6,22.6,0,0,1,65,14.82l.31,0,.38,0,.51,0h0a1.35,1.35,0,0,1,.44.07,2.8,2.8,0,0,1,.23-.63,4.55,4.55,0,0,1,1-1.37,4.64,4.64,0,0,1,1.49-.93,5,5,0,0,1,1.82-.34,4.66,4.66,0,0,1,1.36.2,5.49,5.49,0,0,1,1.2.56,1,1,0,0,1,.09-.37.85.85,0,0,1,.31-.29,1.52,1.52,0,0,1,.68-.1,3.46,3.46,0,0,1,.8.08.6.6,0,0,1,.43.31,2,2,0,0,1,.06.67c0,.21,0,.45,0,.73l0,.87,0,.89c0,.29,0,.55,0,.78s0,.63,0,.93a4,4,0,0,0,.12.77,1.54,1.54,0,0,0,.24.53.46.46,0,0,0,.38.19A1.14,1.14,0,0,0,77.5,18a5,5,0,0,0,.75-.77c.09-.1.16-.21.24-.31a10.85,10.85,0,0,1-.12-1.65c0-.17,0-.43,0-.77s0-.7,0-1.06,0-.69.07-1A2.13,2.13,0,0,1,78.6,12c.16-.26.56-.39,1.18-.39a4.56,4.56,0,0,1,.88.08.67.67,0,0,1,.5.31,2.63,2.63,0,0,1,0,.67c0,.21,0,.46,0,.74s0,.58,0,.87,0,.6,0,.89,0,.56,0,.79,0,.63,0,.93a3.57,3.57,0,0,0,.11.78,1.54,1.54,0,0,0,.24.53.44.44,0,0,0,.37.19,1,1,0,0,0,.53-.18,4.23,4.23,0,0,0,.58-.51,6,6,0,0,0,.61-.74,10.63,10.63,0,0,0,.61-.89v-.65c0-1.09,0-1.91,0-2.45a2.71,2.71,0,0,1,.14-1,.83.83,0,0,1,.41-.29,2.2,2.2,0,0,1,.77-.1,3.46,3.46,0,0,1,.8.08.6.6,0,0,1,.43.31,3.54,3.54,0,0,1,0,.63c0,.38,0,.89,0,1.51s0,1.34,0,2.13,0,1.64,0,2.5a13.4,13.4,0,0,0,1.63-1.65,10,10,0,0,0,1.31-2.14.34.34,0,0,1,.1-.18.24.24,0,0,1,.14-.05c.1,0,.19.11.25.33a2.75,2.75,0,0,1,.09.73v.17a1.67,1.67,0,0,1,0,.39,1.26,1.26,0,0,1-.13.34A10.59,10.59,0,0,1,88.69,19a16.35,16.35,0,0,1-1.81,1.74c0,1,0,1.9-.09,2.78s-.09,1.64-.15,2.29A5.91,5.91,0,0,1,86.11,28a4.42,4.42,0,0,1-1,1.39,3.67,3.67,0,0,1-1.22.75,3.74,3.74,0,0,1-1.16.22,3.12,3.12,0,0,1-1.37-.3,3,3,0,0,1-1.07-.81,3.46,3.46,0,0,1-.7-1.21,4.78,4.78,0,0,1-.24-1.54,4.22,4.22,0,0,1,.41-1.93A5.84,5.84,0,0,1,80.86,23a9.65,9.65,0,0,1,1.59-1.25l1.87-1.22,0-2.2q-.27.36-.57.69a4.17,4.17,0,0,1-.68.58,3.59,3.59,0,0,1-.78.4,2.76,2.76,0,0,1-.91.15A2.3,2.3,0,0,1,80,19.82a3,3,0,0,1-.92-1L79,18.6l-.09.12a5.11,5.11,0,0,1-.73.74,4.12,4.12,0,0,1-.88.53,2.75,2.75,0,0,1-1,.2,2.17,2.17,0,0,1-1.17-.3,2.33,2.33,0,0,1-.8-.87,5.35,5.35,0,0,1-1.4.85,4.52,4.52,0,0,1-1.68.32,4.83,4.83,0,0,1-1.82-.34,4.51,4.51,0,0,1-2.5-2.3,3.67,3.67,0,0,1-.32-1Zm17.85,8V23.6c0-.35,0-.71,0-1.09-.44.29-.84.58-1.22.86a7.23,7.23,0,0,0-1,.89,3.72,3.72,0,0,0-.66,1,3,3,0,0,0-.24,1.22,1.83,1.83,0,0,0,.07.45,1.48,1.48,0,0,0,.24.53,1.52,1.52,0,0,0,.46.45,1.4,1.4,0,0,0,.74.19A1.34,1.34,0,0,0,84,27.15a6.53,6.53,0,0,0,.42-2.62Zm-10.8-8.81a2.74,2.74,0,0,0-.17-.86,2.21,2.21,0,0,0-.45-.7,2.11,2.11,0,0,0-.74-.48,2.82,2.82,0,0,0-1-.18,1.49,1.49,0,0,0-.75.19,1.85,1.85,0,0,0-.62.5,2.26,2.26,0,0,0-.41.75,2.5,2.5,0,0,0-.15.92,2.58,2.58,0,0,0,.15.92,2.31,2.31,0,0,0,.41.74,1.88,1.88,0,0,0,.62.51,1.49,1.49,0,0,0,.75.19A2.72,2.72,0,0,0,72.28,18a2,2,0,0,0,.75-.51,2.16,2.16,0,0,0,.44-.75,3.1,3.1,0,0,0,.14-.92v-.14ZM60.23,17.09a57.91,57.91,0,0,0-6,1,26,26,0,0,0-4.41,1.34,8.65,8.65,0,0,0-2.71,1.67A2.68,2.68,0,0,0,46.16,23a2.73,2.73,0,0,0,.25,1.15,2.53,2.53,0,0,0,.73.9,3.32,3.32,0,0,0,1.17.6,5.45,5.45,0,0,0,1.58.21,6.89,6.89,0,0,0,3-.65,10.55,10.55,0,0,0,2.68-1.81A18.26,18.26,0,0,0,58,20.64a40.27,40.27,0,0,0,2.25-3.55Z" style="fill:#fff"/><path d="M124.83,19.52a1.21,1.21,0,0,1-.11.4,1.73,1.73,0,0,1-.35.51,2.18,2.18,0,0,1-.62.43,2.24,2.24,0,0,1-1,.18,24.43,24.43,0,0,1-3.25-.21,29.41,29.41,0,0,1-3-.55c-1-.23-1.87-.49-2.74-.79s-1.7-.61-2.49-.94a6.68,6.68,0,0,1-1.26,1.09,7.33,7.33,0,0,1-1.68.84,11.22,11.22,0,0,1-2.11.53,17.25,17.25,0,0,1-2.61.18,13.9,13.9,0,0,1-3.22-.34A9,9,0,0,1,98,19.94a4.85,4.85,0,0,1-1.57-1.31,2.55,2.55,0,0,1-.56-1.55,3,3,0,0,1,.43-1.55,3.71,3.71,0,0,1,1.29-1.22,7.1,7.1,0,0,1,2.11-.81,13,13,0,0,1,3-.29,10.43,10.43,0,0,1,1.78.15,14.93,14.93,0,0,1,1.7.4c.55.17,1.11.36,1.66.59s1.12.48,1.7.73a5.88,5.88,0,0,0,.14-1c0-.36,0-.74,0-1.12s0-.68,0-1a8.37,8.37,0,0,0-.05-.89,18.32,18.32,0,0,1-2.65-.91,21.07,21.07,0,0,1-2.17-1.05,12.6,12.6,0,0,1-1.57-1,3.1,3.1,0,0,1-.8-.82,7,7,0,0,1-.47-1,2.52,2.52,0,0,1-.14-.7c0-.25.09-.38.28-.38a2.44,2.44,0,0,1,.72.4c.4.26.92.59,1.55,1s1.38.8,2.23,1.23A23.49,23.49,0,0,0,109.39,9c-.06-.49-.12-1-.16-1.38a12.61,12.61,0,0,1-.07-1.42,4.88,4.88,0,0,1,.5-2.16,5.77,5.77,0,0,1,1.42-1.86A7,7,0,0,1,113.3.85a7.93,7.93,0,0,1,2.87-.5,10.31,10.31,0,0,1,3.12.44A7.19,7.19,0,0,1,121.6,2,5,5,0,0,1,123,3.75a4.93,4.93,0,0,1,.49,2.18,4.14,4.14,0,0,1-.67,2.26A6.35,6.35,0,0,1,121,10.07a9.51,9.51,0,0,1-2.8,1.28,12.42,12.42,0,0,1-3.54.48,14,14,0,0,1-1.56-.09c0,.21,0,.41,0,.62V13a15,15,0,0,1-.12,1.8,7.9,7.9,0,0,1-.44,1.67c.77.33,1.59.65,2.44,1a23.74,23.74,0,0,0,2.73.83,27.12,27.12,0,0,0,3.14.57,29,29,0,0,0,3.61.22c.23,0,.35.15.35.47Zm41.26-3.76a3.91,3.91,0,0,1,0,.49,1,1,0,0,1-.14.41q-.22.42-.63,1a6.78,6.78,0,0,1-1,1.17,5.87,5.87,0,0,1-1.44.94,4.18,4.18,0,0,1-1.87.4,6.7,6.7,0,0,1-1.48-.13,4.54,4.54,0,0,1-.91-.31,1.86,1.86,0,0,1-.48-.35,2.22,2.22,0,0,1-.18-.23.85.85,0,0,1-.11-.37,3,3,0,0,1,0-.52,2.46,2.46,0,0,1,0-.41c0-.11.06-.17.12-.17a.46.46,0,0,1,.22.09l.35.21a1.88,1.88,0,0,0,.45.22,1.63,1.63,0,0,0,.55.09,1.44,1.44,0,0,0,.62-.13,1.54,1.54,0,0,0,.49-.34,1.6,1.6,0,0,0,.31-.52,1.58,1.58,0,0,0,.12-.61,1.74,1.74,0,0,0-.24-.93,4.76,4.76,0,0,0-.58-.73l-.73-.74a4.16,4.16,0,0,1-.69-.93l-.07.23c0,.08-.05.16-.08.25s0,.18-.08.28a5.58,5.58,0,0,1-.21.59c-.1.25-.21.52-.34.8s-.28.58-.43.87-.32.55-.47.79a3.93,3.93,0,0,1-.44.59.55.55,0,0,1-.37.23c-.07,0-.13,0-.18-.14a2.27,2.27,0,0,1-.11-.34c0-.13-.05-.26-.07-.39s0-.22,0-.29a1,1,0,0,1,.18-.38l.43-.73c.16-.29.33-.62.51-1a9,9,0,0,0,.46-1.16,7.3,7.3,0,0,0,.29-1.14,4.52,4.52,0,0,0,.07-.74,2.92,2.92,0,0,0,0-.33,1.86,1.86,0,0,1,0-.22.41.41,0,0,1,.15-.27,2,2,0,0,1,.38-.28,2.79,2.79,0,0,1,.53-.21,1.79,1.79,0,0,1,.54-.09h0a3.74,3.74,0,0,1,.69,0,.27.27,0,0,1,.23.29,2.05,2.05,0,0,0,.22,1,4.91,4.91,0,0,0,.56.84c.23.28.47.55.73.82a6.55,6.55,0,0,1,.73.85,4.66,4.66,0,0,1,.56,1,3.11,3.11,0,0,1,.22,1.21,2.1,2.1,0,0,1-.19.94,3.77,3.77,0,0,1-.36.61,3.37,3.37,0,0,0,.8-.47,4.29,4.29,0,0,0,.69-.66,6.58,6.58,0,0,0,.61-.83c.19-.31.38-.63.56-1l.11-.18a.17.17,0,0,1,.14-.05c.1,0,.18.11.25.33a2.81,2.81,0,0,1,.09.73ZM156.75,3.39c0,.09-.05.29-.12.58s-.17.63-.28,1-.22.79-.36,1.22-.27.85-.4,1.23-.26.71-.37,1a2,2,0,0,1-.28.55,1,1,0,0,1-.5.3,2.35,2.35,0,0,1-.69.1,2.32,2.32,0,0,1-.65-.09.72.72,0,0,1-.43-.31.55.55,0,0,1-.06-.24c0-.1,0-.24,0-.4a8.63,8.63,0,0,1,.09-.89c.05-.34.11-.69.18-1.06s.15-.73.23-1.1.17-.69.26-1,.17-.54.25-.74a1.09,1.09,0,0,1,.21-.38,1.49,1.49,0,0,1,.24-.14.92.92,0,0,1,.29-.11,2.09,2.09,0,0,1,.39-.07,4.53,4.53,0,0,1,.55,0,2.71,2.71,0,0,1,1,.14.64.64,0,0,1,.44.36v.06Zm-4.19,12.49a3.81,3.81,0,0,1-.37,1.67,4.35,4.35,0,0,1-1,1.38,4.77,4.77,0,0,1-1.5.92,4.93,4.93,0,0,1-1.84.34,4.83,4.83,0,0,1-1.82-.34,4.51,4.51,0,0,1-1.49-.92c-.09-.08-.16-.16-.24-.24l0,0a4.58,4.58,0,0,1-.72.74,4.12,4.12,0,0,1-.88.53,2.66,2.66,0,0,1-1,.2,2.5,2.5,0,0,1-1.58-.44,2.67,2.67,0,0,1-.79-1.11A4.79,4.79,0,0,1,139,17.2c0-.52-.05-1-.06-1.44a5.94,5.94,0,0,0-.14-1.11q-.11-.45-.48-.45a1.06,1.06,0,0,0-.74.41,5.67,5.67,0,0,0-.76,1,15,15,0,0,0-.72,1.33c-.23.49-.43.94-.61,1.37s-.34.8-.45,1.12-.19.51-.21.58l0,0s-.08.07-.17.09a1.54,1.54,0,0,1-.31.05h-.79l-.29-.05A.26.26,0,0,1,133,20a3.83,3.83,0,0,1-.1-.39c-.06-.25-.12-.61-.19-1.08,0-.21-.06-.44-.08-.69a7.19,7.19,0,0,1-.89,1,5.63,5.63,0,0,1-1.44.95,4.18,4.18,0,0,1-1.87.4,6.09,6.09,0,0,1-2.4-.43,5,5,0,0,1-1.58-1.09,4.14,4.14,0,0,1-.87-1.39,4,4,0,0,1-.28-1.4,3.89,3.89,0,0,1,.37-1.68,4.55,4.55,0,0,1,1-1.37,4.64,4.64,0,0,1,1.49-.93,5,5,0,0,1,1.82-.34,4.48,4.48,0,0,1,1.34.2,3.64,3.64,0,0,1,1.08.54,2.6,2.6,0,0,1,.74.85,2.28,2.28,0,0,1,.28,1.1,2.42,2.42,0,0,1-.28,1.15,2.45,2.45,0,0,1-.76.84,3.24,3.24,0,0,1-1.09.52,5.11,5.11,0,0,1-1.31.17,5.84,5.84,0,0,1-.93-.08,7.32,7.32,0,0,1-.92-.24,1.92,1.92,0,0,0,.83,1.24,2.67,2.67,0,0,0,1.46.4A4.54,4.54,0,0,0,130,18a4,4,0,0,0,1.2-.68,5.78,5.78,0,0,0,1-1.05c.11-.16.22-.32.33-.5,0-.35,0-.73,0-1.12,0-.17,0-.41,0-.71s.05-.6.08-.9,0-.57.09-.81a1.19,1.19,0,0,1,.12-.43,1,1,0,0,1,.24-.09l.36-.08.4-.07.29,0h.06a2.35,2.35,0,0,1,.63.08,1.83,1.83,0,0,1,.35.12,1,1,0,0,1,.05.26c0,.14,0,.31,0,.5s0,.37,0,.55,0,.32,0,.43c0,.35,0,.74,0,1.16l-.09,1.3c.21-.46.47-1,.76-1.47a9.34,9.34,0,0,1,1-1.43A5.84,5.84,0,0,1,138.13,12a2.61,2.61,0,0,1,1.42-.42,1.44,1.44,0,0,1,.95.3,1.72,1.72,0,0,1,.56.76,4.06,4.06,0,0,1,.27,1.08,12.25,12.25,0,0,1,.09,1.24c0,.42,0,.83,0,1.24a7.08,7.08,0,0,0,.07,1.08,2.38,2.38,0,0,0,.21.76.5.5,0,0,0,.47.29,1.19,1.19,0,0,0,.69-.29,3.86,3.86,0,0,0,.58-.57,4,4,0,0,1-.32-1.57,3.89,3.89,0,0,1,.37-1.68,4.39,4.39,0,0,1,1-1.37A4.53,4.53,0,0,1,146,11.9a5,5,0,0,1,1.82-.34,5.14,5.14,0,0,1,1.84.34,4.8,4.8,0,0,1,1.5.93,4.42,4.42,0,0,1,1,1.37,3.89,3.89,0,0,1,.37,1.68Zm-2.76,0a2.75,2.75,0,0,0-.15-.93,2.44,2.44,0,0,0-.42-.76,2,2,0,0,0-.63-.5,1.53,1.53,0,0,0-.76-.19,1.56,1.56,0,0,0-.76.19,2,2,0,0,0-.61.5,2.44,2.44,0,0,0-.42.76,2.75,2.75,0,0,0-.15.93,2.71,2.71,0,0,0,.15.91,2.28,2.28,0,0,0,.42.75,2,2,0,0,0,.61.52,1.56,1.56,0,0,0,.76.19,1.53,1.53,0,0,0,.76-.19,2.09,2.09,0,0,0,.63-.52,2.28,2.28,0,0,0,.42-.75,2.71,2.71,0,0,0,.15-.91Zm-20.52-1.32a1.06,1.06,0,0,0-.1-.5,1.14,1.14,0,0,0-.28-.33,1,1,0,0,0-.4-.18,2,2,0,0,0-.48-.05,1.37,1.37,0,0,0-.68.17,1.93,1.93,0,0,0-.6.44,2.28,2.28,0,0,0-.43.66,2.43,2.43,0,0,0-.22.81,1.29,1.29,0,0,0,.41.1,4.33,4.33,0,0,0,.53,0,5.09,5.09,0,0,0,.77-.06,3.89,3.89,0,0,0,.73-.19,1.65,1.65,0,0,0,.54-.36.76.76,0,0,0,.21-.54ZM119.52,6a4.53,4.53,0,0,0-.29-1.67,3.47,3.47,0,0,0-.76-1.2,2.91,2.91,0,0,0-1.08-.73,3.24,3.24,0,0,0-1.25-.25,3.68,3.68,0,0,0-1.22.21,2.86,2.86,0,0,0-1.09.68,3.74,3.74,0,0,0-.77,1.25,5.75,5.75,0,0,0-.29,1.94c0,.67,0,1.29,0,1.84s.07,1.12.12,1.68l.82.07.86,0a7,7,0,0,0,2.09-.29,4.41,4.41,0,0,0,1.54-.8,3.26,3.26,0,0,0,.94-1.22A3.56,3.56,0,0,0,119.52,6Zm-11,11.29-1.73-.76c-.54-.24-1.06-.44-1.55-.62a10.81,10.81,0,0,0-1.39-.42,5.09,5.09,0,0,0-1.24-.16,4.44,4.44,0,0,0-1.13.13,2.65,2.65,0,0,0-.87.36,1.71,1.71,0,0,0-.58.55,1.25,1.25,0,0,0-.21.7,1.23,1.23,0,0,0,.41.94,2.94,2.94,0,0,0,1,.62,5.46,5.46,0,0,0,1.22.31,8.09,8.09,0,0,0,1.12.09,9.6,9.6,0,0,0,3.06-.42,4.24,4.24,0,0,0,1.91-1.32Z" style="fill:#fff"/></svg>
