<svg xmlns="http://www.w3.org/2000/svg" viewBox="0 0 175.75 92.15"><path d="M175.75,46.07c0,25.45-39.35,46.08-87.87,46.08S0,71.52,0,46.07,39.34,0,87.88,0s87.87,20.63,87.87,46.07Z" style="fill:#fffac2;fill-rule:evenodd"/><path d="M172.11,46c0,23.37-37.73,42.32-84.26,42.32S3.58,69.41,3.58,46,41.31,3.73,87.85,3.73,172.11,22.67,172.11,46Zm-84.26-39c-44.72,0-81,17.45-81,39s36.25,39,81,39,81-17.45,81-39-36.25-39-81-39Z" style="fill:#006351;fill-rule:evenodd"/><path d="M166.71,46c0,20.37-35.31,36.89-78.86,36.89S9,66.41,9,46,44.29,9.16,87.85,9.16,166.71,25.67,166.71,46ZM138.39,28.77H124.86l-1.64,4.71H132l-10,3.46-.66,1.91,15.36-5,1.7-5ZM52.15,37H46.64s5.11-13.61,5.52-14.64c.72-1.82,1.16-1.7,1.16-1.7H45.71c.94.45.11,2.23.11,2.23s-6.1,17-6.52,17.82-.75,1-.75,1H51.73l1.85-5c-.16.48-1.43.36-1.43.36Zm23.12,4.65h6.21a1.54,1.54,0,0,1-.16-1.32c.36-1,3.66-9.92,3.66-9.92l1.43,11.24H92l7.37-20s.3-.94.71-.94l-6,0a2.34,2.34,0,0,1,0,1.22c-.21.53-3.61,9.6-3.61,9.6L89.16,20.74H82.75a1.39,1.39,0,0,1,.12,1.11c-.18.48-6.81,18.68-6.81,18.68s-.42,1.16-.79,1.16Zm28.38-20.94s.53.84-.16,2.81-6.1,16.55-6.1,16.55-.43,1.37-1,1.64h8.49A14,14,0,0,0,118.34,31.3s4-10.66-7.64-10.55Zm.9,16.16h1c1.44,0,4.12-.32,5.91-4.7,3-7.19-1.16-7-1.16-7h-1.59l-4.14,11.66ZM29.07,58.62H42.59l1.65-4.71H35.49l10-3.45.66-1.91-15.36,5-1.7,5Zm23.7,8.69c-.21,0-.21-.68-.21-.68L55.05,60l3.31,6.51a1.13,1.13,0,0,1,.1.78h7.42c-.71,0-1.44-1.34-1.44-1.34l-3.69-6.63c5.16,0,6.81-5.11,6.81-5.11,2.55-8.14-6-7.93-6-7.93H52.77c.64.71.14,2.2.14,2.2S47.47,64.07,47,65.27a6.46,6.46,0,0,1-1.2,2ZM58,51.13l-1.44,4.23h1.34s2.62.23,3.59-1.85c0,0,1.13-2.39-2-2.39Zm71.46,16.26c-.53,0-.16-1.29-.16-1.29l2.22-6,3.2,6.51a1.18,1.18,0,0,1,.11.78h7.67c-.7,0-1.48-1.35-1.48-1.35l-3.69-6.62c5.16,0,6.72-4.93,6.72-4.93,2.71-8.52-5.93-8.11-5.93-8.11h-8.7c.64.71.14,2.19.14,2.19s-5.67,15.63-6.09,16.84a5.58,5.58,0,0,1-1.24,2Zm5-12s2.6.2,3.4-1.83c.94-2.4-1.41-2.34-1.41-2.34h-1.92l-1.41,4.17ZM76.73,67.83c7.66,0,12.21-7.51,12.21-12.89,0-5.65-2.32-9.18-7.62-9.18-6.77,0-11.18,5.14-12.32,11.52-1,5.87,2.26,10.55,7.73,10.55Zm.49-5c1.9.35,4-1,5.1-5.41,1.66-6.65-1.4-6.7-2-6.77-1.69-.21-4,1.74-4.87,5.81-.43,1.86-.87,5.89,1.73,6.37ZM90.76,46.38s.52.28.52,1.63V66.18s-.07,1-.44,1.21h5.68a2.11,2.11,0,0,1,.57-1.14c.56-.7,12.37-16.54,12.37-16.54s2.7-3.33,3.4-3.33h-8.14a.83.83,0,0,1,.15,1.2c-.5.78-7.73,11.6-7.73,11.6l.09-10.91s0-1.75.69-1.9Zm34.38,5,1.84-5H113.19s.49.44-.14,2.2-6.23,16.83-6.23,16.83-1,2-1.27,2h14.21l1.7-5s-.21.28-1.55.28h-6l1.28-3.39h4.66s1-.07,1.21.21L123,54.11s-.14.48-1.42.48H117l1.35-3.75h5.73a1.06,1.06,0,0,1,1.06.5Zm-71.9-9.63h6.81a2.17,2.17,0,0,1,.15-.87c.33-.61,1.17-2.09,1.17-2.09h6.85V40.6a1.54,1.54,0,0,1-.47,1.12h6.79A1.43,1.43,0,0,1,74,40.6L73.1,22.15s0-1.18.53-1.43H66.89s.48.58-.43,1.91S54.06,41,54.06,41a1.77,1.77,0,0,1-.82.69ZM68.09,27.86,64.31,34h3.83l0-6.15Z" style="fill:#006351;fill-rule:evenodd"/></svg>
