<svg xmlns="http://www.w3.org/2000/svg" viewBox="0 0 343.81 151.08"><title>Asset 1</title><path d="M343.81,35.05H235.37a75.51,75.51,0,0,0-127.51,0H0L11,46h91.08a76.49,76.49,0,0,0-4,12.38H23.33l11,11h62c-.16,2-.27,4.06-.27,6.12s.11,4.19.28,6.26H46.66l11,11H98.08a74,74,0,0,0,4,12.38H70l11,11h27a75.53,75.53,0,0,0,127.35,0h27.56l11-11H241.12a75,75,0,0,0,4-12.38h41l11-11H246.88c.17-2.07.28-4.15.28-6.26s-.11-4.1-.27-6.12h62.62l11-11h-75.3a75.49,75.49,0,0,0-4-12.38h91.66ZM171.91,140.17a64.5,64.5,0,1,1,64.5-64.5A64.5,64.5,0,0,1,171.91,140.17Z" style="fill:#fff"/><polygon points="138.74 85.04 129.98 58.56 120.06 58.56 120.06 92.58 127.3 92.58 127.3 67.35 134.95 92.58 142.46 92.58 150.13 67.35 150.13 92.58 157.38 92.58 157.38 58.56 147.42 58.56 138.74 85.04" style="fill:#fff"/><polygon points="201.88 83.48 188.25 58.56 180.23 58.56 180.23 92.58 186.96 92.58 186.96 68.73 200.59 92.78 208.7 92.58 208.7 58.56 201.97 58.56 201.88 83.48" style="fill:#fff"/><rect x="165.28" y="58.53" width="6.9" height="34.03" style="fill:#fff"/><rect x="216.56" y="58.53" width="6.9" height="34.03" style="fill:#fff"/></svg>
